<svg width="140" height="140" viewBox="0 0 140 140" fill="none" xmlns="http://www.w3.org/2000/svg">
<rect opacity="0.01" width="140" height="140" fill="white"/>
<circle cx="40" cy="50" r="24" fill="#D7DBEC"/>
<mask id="mask0_0_2986" style="mask-type:luminance" maskUnits="userSpaceOnUse" x="16" y="26" width="48" height="48">
<circle cx="40" cy="50" r="24" fill="white"/>
</mask>
<g mask="url(#mask0_0_2986)">
<circle cx="40" cy="44" r="8" fill="#131523"/>
<path fill-rule="evenodd" clip-rule="evenodd" d="M23.0013 67.7938C25.6738 60.887 32.2775 56 40.0006 56C47.7239 56 54.3277 60.8872 57.0001 67.7942C52.6945 72.2385 46.6694 75 40.0008 75C33.3322 75 27.3069 72.2384 23.0013 67.7938Z" fill="#131523"/>
</g>
<circle cx="83.5" cy="73.5" r="40.5" fill="#336DFF"/>
<mask id="mask1_0_2986" style="mask-type:luminance" maskUnits="userSpaceOnUse" x="43" y="33" width="81" height="81">
<circle cx="83.5" cy="73.5" r="40.5" fill="white"/>
</mask>
<g mask="url(#mask1_0_2986)">
<circle cx="83.5" cy="63.5" r="13.5" fill="#B6CBFF"/>
<path fill-rule="evenodd" clip-rule="evenodd" d="M53.8603 103.313C58.604 91.3867 69.8644 83 83.0004 83C96.6917 83 108.346 92.1108 112.707 104.844C105.311 112.363 95.1778 117 84 117C72.082 117 61.3516 111.729 53.8603 103.313Z" fill="#B6CBFF"/>
</g>
</svg>
